<svg xmlns="http://www.w3.org/2000/svg" viewBox="0 0 836.52 147.14"><defs><style>.cls-1{fill:#6495ed;}.cls-2{fill:#ff1493;}.cls-2,.cls-3{stroke:#fff;stroke-miterlimit:10;}.cls-3{fill:#fff;}.cls-4{fill:#4b70b2;}</style></defs><title>RevampedConfetti-Logo-v3.0Asset 1</title><g id="Layer_2" data-name="Layer 2"><g id="Logo-Mark"><path id="Main" class="cls-1" d="M40.12,40.11l3.11,21.55c0,.8-3.34,5.67-3.78,6.33L5.84,113.71,1,119.08c-3.88,4.33,4.71,12.11,8.59,7.77l4.85-5.36L54.47,81.6c.65-.56,5.07-4.38,5.93-4.4l22.34,1.65c3.4,0,5-4.24,11.41-12.3l-13-11.82L63.05,42.66l-16.68-5.5A3.74,3.74,0,0,0,40.12,40.11Z"/><g id="A-Phi-Flower"><path id="Flower-Outer" class="cls-2" d="M64.45,22.72s7.47-12-1.77-17.83-16,3.48-16.71,6.2a11.15,11.15,0,0,0-12.43-3c-.31.12-.68.25-1.28.54s-1.33.73-1.53.85c-1.41.93-4.22,3.83-1.29,11.36,0,0-8.81,3.12-6.53,12.86s15.45,4.61,15.45,4.61,2.4,12.41,8.7,13c0,0,10.81,1.26,13-7.81a11.8,11.8,0,0,0,7.3-1.8,19.63,19.63,0,0,0,3-2.58c1.34-1.65,2.59-5.09-1.2-11.29-3.1-2.8-3-2.22-4.65-3.36A1.35,1.35,0,0,1,64.45,22.72Z"/><circle id="Center" class="cls-3" cx="48.55" cy="27.09" r="6.26"/></g><g id="Phi-Flower"><path id="Flower-Outer-2" data-name="Flower-Outer" class="cls-2" d="M93.15,20.2s7.47-12-1.77-17.82S75.43,5.85,74.67,8.58a11.15,11.15,0,0,0-12.43-3c-.31.12-.68.26-1.28.54s-1.33.73-1.53.86c-1.41.92-4.22,3.82-1.3,11.35,0,0-8.8,3.12-6.52,12.86s15.45,4.61,15.45,4.61,2.4,12.42,8.7,13c0,0,10.81,1.26,13-7.81a11.8,11.8,0,0,0,7.3-1.8,19.54,19.54,0,0,0,3-2.58c1.34-1.65,2.59-5.08-1.21-11.29-3.09-2.8-3-2.22-4.64-3.35A1.37,1.37,0,0,1,93.15,20.2Z"/><circle id="Center-2" data-name="Center" class="cls-3" cx="77.25" cy="24.57" r="6.26"/></g><g id="Big-Flower"><path id="Flower-Outer-3" data-name="Flower-Outer" class="cls-2" d="M114.55,64.82s7.47-12-1.77-17.83-16,3.48-16.71,6.2a11.15,11.15,0,0,0-12.43-3,13.06,13.06,0,0,0-1.28.54c-.55.26-1.33.73-1.53.85-1.41.93-4.23,3.83-1.3,11.35,0,0-8.8,3.13-6.53,12.87s15.46,4.61,15.46,4.61,2.4,12.41,8.7,13c0,0,10.81,1.26,13-7.81a11.74,11.74,0,0,0,7.29-1.81,19,19,0,0,0,3-2.57c1.34-1.65,2.59-5.09-1.21-11.29-3.09-2.8-3-2.22-4.64-3.36A1.35,1.35,0,0,1,114.55,64.82Z"/><circle id="Center-3" data-name="Center" class="cls-3" cx="98.65" cy="69.18" r="6.26"/></g><g id="Small-Flower"><path id="Flower-Outer-4" data-name="Flower-Outer" class="cls-2" d="M116.65,32.82s7.46-12-1.78-17.82-16,3.48-16.71,6.2a11.14,11.14,0,0,0-12.43-3c-.31.12-.68.25-1.28.54a17.19,17.19,0,0,0-1.52.85c-1.41.92-4.23,3.82-1.3,11.35,0,0-8.8,3.12-6.53,12.86s15.45,4.61,15.45,4.61,2.41,12.42,8.7,13c0,0,10.81,1.25,13-7.81a11.84,11.84,0,0,0,7.3-1.81,18.51,18.51,0,0,0,3-2.57c1.35-1.65,2.59-5.09-1.2-11.3-3.09-2.8-3-2.21-4.64-3.35A1.36,1.36,0,0,1,116.65,32.82Z"/><circle id="Center-4" data-name="Center" class="cls-3" cx="100.74" cy="37.19" r="6.26"/></g><polygon class="cls-4" points="41.28 65.25 54.91 81.19 34.36 74.78 41.28 65.25"/><polygon class="cls-4" points="44.29 91.75 34.36 74.78 54.91 81.19 44.29 91.75"/><polygon class="cls-4" points="34.36 74.78 44.29 91.75 24.88 87.75 34.36 74.78"/><polygon class="cls-4" points="24.88 87.75 32.45 103.48 44.29 91.75 24.88 87.75"/><polygon class="cls-4" points="24.88 87.75 32.45 103.48 13.51 103.27 24.88 87.75"/><polygon class="cls-4" points="13.51 103.27 21.67 114.26 32.45 103.48 13.51 103.27"/><polygon class="cls-4" points="21.67 114.26 11 106.7 13.51 103.27 21.67 114.26"/><g id="Small-Flower-2" data-name="Small-Flower"><path id="Flower-Outer-5" data-name="Flower-Outer" class="cls-2" d="M85.75,43.05S93.22,31,84,25.22s-16,3.48-16.71,6.2a11.14,11.14,0,0,0-12.43-3c-.31.12-.68.25-1.28.54s-1.33.72-1.53.85c-1.41.92-4.22,3.83-1.29,11.35,0,0-8.81,3.12-6.53,12.86s15.45,4.61,15.45,4.61,2.4,12.42,8.7,13c0,0,10.81,1.25,13-7.81a11.85,11.85,0,0,0,7.3-1.81,19.41,19.41,0,0,0,3-2.57c1.34-1.65,2.59-5.09-1.2-11.3-3.1-2.8-3-2.21-4.65-3.35A1.36,1.36,0,0,1,85.75,43.05Z"/><circle id="Center-5" data-name="Center" class="cls-3" cx="69.85" cy="47.41" r="6.26"/></g></g><g id="Logo-Type"><path d="M205.46,59.59a29.78,29.78,0,0,1-6.28,18.22,20.29,20.29,0,0,1-16.52,8.47Q167.32,85.94,167,70.09a28.25,28.25,0,0,1,5.57-16.82,51.3,51.3,0,0,1,14-13.83,71.66,71.66,0,0,1,40.07-12.62,75.86,75.86,0,0,1,10.14.68,30,30,0,0,1,8.92,2.89q2.4-.9,5.8-2.15a24.81,24.81,0,0,1,6.19-1.42l.11.69a30.37,30.37,0,0,0-10.36,3.8A16.22,16.22,0,0,1,256.06,46q-.23,12.39-8.39,17.81a31.7,31.7,0,0,1-18.59,5.3v.23q7,2.83,7,10.62A22.27,22.27,0,0,1,235,86.2c-.68,2.54-1.54,5.17-2.57,7.91q-3.49,8.31-3.78,13.5c0,2.43,1.11,3.68,3.35,3.75q7.2,0,17.47-9.92A120.34,120.34,0,0,0,266,79.8l1.06.52q-2.52,4.2-6.19,9.39a103.68,103.68,0,0,1-8.82,10.76q-11.26,12.27-20.86,12.27a8.87,8.87,0,0,1-6.3-2.13,7.26,7.26,0,0,1-2.4-5.88,17.46,17.46,0,0,1,1.38-6.28c.89-2.46,1.88-5,3-7.55s2.17-5.32,3.05-7.9a23.54,23.54,0,0,0,1.16-6.74c0-3-.78-5-2.32-6a13.25,13.25,0,0,0-6.22-1.9l.45-1.21a24.86,24.86,0,0,0,4.77.46Q238,67.51,244,60.34q5.89-7,6-17.43a16.52,16.52,0,0,0-1-5.77,9.46,9.46,0,0,0-3.29-4.27q-8.49,5.84-16.37,18.46T213,78.14a129.26,129.26,0,0,1-18,24.11q-9.84,10.26-22.18,10.49a13.29,13.29,0,0,1-7.21-2.12,6.72,6.72,0,0,1-3.63-6.15c.08-3,1.63-4.56,4.67-4.63a3.83,3.83,0,0,1,2.61.91,3.93,3.93,0,0,1,.89,2.69,5,5,0,0,1-.66,2.57,2.77,2.77,0,0,1-2.5,1.32,5.13,5.13,0,0,0,2.51,2.63,8.93,8.93,0,0,0,4.59,1.4,16,16,0,0,0,8.56-2.83,34.86,34.86,0,0,0,7.94-7.44,125.42,125.42,0,0,0,7.66-10.85q3.75-6.06,7.55-12.81a288,288,0,0,1,16.95-26.78Q232,37.84,244,31.6a28.31,28.31,0,0,0-8.37-2.83,76.87,76.87,0,0,0-9.27-.57q-18.36.11-36.23,11.2a48.61,48.61,0,0,0-13.57,13.34A32.16,32.16,0,0,0,171,70.88q.11,13.8,11.75,14a16.82,16.82,0,0,0,9-2.48,20.44,20.44,0,0,0,6.63-6,29.09,29.09,0,0,0,5.68-16.82Z"/><path d="M308.77,80.25q-5.36,9.81-17,20.2a60.28,60.28,0,0,1-11.65,8,27.38,27.38,0,0,1-12.1,3.29q-9.93-.12-10-9.8A23.4,23.4,0,0,1,261,91a46.67,46.67,0,0,1,7.74-10.61,47.55,47.55,0,0,1,10.41-8.07,23.34,23.34,0,0,1,10.46-3q6,.12,6.07,4.84,0,2.59-2.9,5.3a35.46,35.46,0,0,1-7.31,5,80.05,80.05,0,0,1-17.9,6.51,23.65,23.65,0,0,0-2.84,11.18,11.64,11.64,0,0,0,1.23,5.25,4.61,4.61,0,0,0,4.35,2.59,20.1,20.1,0,0,0,9.05-2.59,63.68,63.68,0,0,0,10.17-6.87,78.4,78.4,0,0,0,18.31-20.85ZM290.3,74c-.08-2.2-1.07-3.29-3-3.29a9.23,9.23,0,0,0-5,1.84,38.44,38.44,0,0,0-5.6,4.85,51.59,51.59,0,0,0-8.51,12.16q5.88-.93,13.66-5.3a23.44,23.44,0,0,0,6.05-4.73A8.44,8.44,0,0,0,290.3,74Z"/><path d="M339.88,70.27h7.43Q338.44,82.66,332,92.69q-6.7,10.14-6.82,14.64c0,2,1,3,3.1,3,1.7,0,3.8-.86,6.32-2.59a51.86,51.86,0,0,0,8.13-6.64,114.58,114.58,0,0,0,17.66-21.88l.68.23a140.66,140.66,0,0,1-16,21,66.63,66.63,0,0,1-9.22,8,16.92,16.92,0,0,1-8.77,3.29q-6.42-.23-6.41-5.77a17.47,17.47,0,0,1,1.53-6.52l-.23-.11a53.83,53.83,0,0,1-8.42,7.84q-5.52,4.33-10.65,4.56c-2.76-.08-4.69-1-5.81-2.71a10.32,10.32,0,0,1-1.84-6.11,23.29,23.29,0,0,1,3.1-10.89,51.46,51.46,0,0,1,7.47-10.83,45.77,45.77,0,0,1,10.18-8.47,20,20,0,0,1,10.13-3.46c3.07.08,5.42.86,7,2.35a9.91,9.91,0,0,1,2.64,5.49h.23ZM302.1,103.34c0,3.7,1.4,5.58,4.2,5.66,2.07,0,4.55-1.06,7.42-3.18a58.77,58.77,0,0,0,8.56-8,48,48,0,0,0,7.19-10.69,26.8,26.8,0,0,0,2.78-10.87Q332,70.79,327,70.67q-3.35,0-7.65,3a40.5,40.5,0,0,0-8.22,8,51.36,51.36,0,0,0-6.41,10.41,27.18,27.18,0,0,0-2.66,11.27Z"/><path d="M425.5,29.18q-14.79,23.46-30.58,47.09-7.4,11.36-12.13,19.59-5,8.25-5,11.7,0,2.72,2.55,2.82,5.55.12,15.52-9.81a109.19,109.19,0,0,0,16.25-20.84l.9.52q-5.07,9.06-15.45,20.43a60.78,60.78,0,0,1-9,7.91,16.13,16.13,0,0,1-8.4,3.17q-7.46-.23-7.28-5.65a10.55,10.55,0,0,1,1-4.5,25.15,25.15,0,0,1,1.7-3.64l-.22-.11a67.52,67.52,0,0,1-8.71,8.94,24.74,24.74,0,0,1-5.24,3.46,14.71,14.71,0,0,1-6,1.5,8,8,0,0,1-6.25-2.71,8.23,8.23,0,0,1-2.29-6,23.82,23.82,0,0,1,3.44-11,54.6,54.6,0,0,1,19.16-19.47,21.23,21.23,0,0,1,10.6-3.29,7.88,7.88,0,0,1,6,2.23,8.47,8.47,0,0,1,2,6.13h.34L418,29.18ZM384.86,77.77a13.38,13.38,0,0,0-.79-5q-1-2-4.42-2.13c-2.38.08-5,1.21-7.88,3.41a51.5,51.5,0,0,0-8.62,8.79,57.73,57.73,0,0,0-6.69,10.52,22.41,22.41,0,0,0-2.78,9.83,7.28,7.28,0,0,0,1,4,3.19,3.19,0,0,0,3.23,1.73q3.29,0,7.66-3.64a57.11,57.11,0,0,0,9-8.44,58.85,58.85,0,0,0,7.31-10.41q2.89-5.08,3-8.73Z"/><path d="M426.54,70.27Q418,82.89,411.05,92.46a68,68,0,0,0-5.3,8.24c-1.44,2.34-2.17,4.27-2.17,5.77q0,3.45,3.24,3.45,3.4,0,7.86-3.34a59.72,59.72,0,0,0,9.27-8.7,196.51,196.51,0,0,0,19.64-27.61h7.08Q438,89.82,425.9,109.92q22.26-5.07,38.27-29.4l.78.35q-17.44,26.31-39.86,30.4a146.05,146.05,0,0,1-19.17,24.18,44.71,44.71,0,0,1-12.1,8.23,33.84,33.84,0,0,1-15.05,3.46q-7.75-.12-12.88-3.91-5.52-3.61-5.63-9.43.11-6.09,4.1-9a14.07,14.07,0,0,1,9.3-2.7v.34q-8,2.13-8,11.07.12,5.94,4.19,9a14,14,0,0,0,8.93,3.29,25.83,25.83,0,0,0,15.45-5.65,69.68,69.68,0,0,0,13.56-13.49,300.94,300.94,0,0,0,20.92-32.1l-.22-.23q-1.73,2.13-4.34,5.07a39.78,39.78,0,0,1-5.79,5.82,36.84,36.84,0,0,1-6.63,4.61,17.61,17.61,0,0,1-7.4,2q-6.84-.12-6.85-5.65,0-4.14,5.12-11.69t16.28-24.15Z"/><path d="M544.36,45.21c-.07.89-.11,1.86-.11,2.9,0,3.13,1.06,5.32,3.19,6.6a11.34,11.34,0,0,0,6.65,2q6.54-.1,12.25-6a20.16,20.16,0,0,0,5.87-14.12q0-4.86-2.51-6.77a13.73,13.73,0,0,0-7.21-1.62q-7.95.11-17.56,5.42a80.17,80.17,0,0,0-18.5,14.78,82.68,82.68,0,0,0-8,9.69,91.91,91.91,0,0,0-6.66,11,52.47,52.47,0,0,0-6,23.89,21.64,21.64,0,0,0,3.43,12.53q3.38,5.65,11.08,5.88Q532,111,540,101.66q8.21-9.06,8.44-19.85-.24-9.59-10.27-9.7L538,70.74q14.47-.24,14.47,13,0,9.1-8.35,18.67-8.31,9.91-24.33,10.37a21.67,21.67,0,0,1-9.87-2.25,18.84,18.84,0,0,1-6.67-5.18,22.91,22.91,0,0,1-4.82-13.83q.1-11.42,6.75-22.88a88.61,88.61,0,0,1,16.24-20.8A92.59,92.59,0,0,1,542.2,32.58q10.88-5.64,19.75-5.76,14.28.12,14.28,12a17.4,17.4,0,0,1-6.81,13.66,24.17,24.17,0,0,1-15.48,5.59,12.11,12.11,0,0,1-7.54-2.25c-2.12-1.49-3.3-4-3.52-7.42,0-1.11,0-2.19.11-3.23Z"/><path d="M625.67,81q-5.92,6.83-12.9,6.95a9.32,9.32,0,0,1-5.35-1.55A10.3,10.3,0,0,1,603.74,83h-.23q-2.73,9.55-11.66,18.71a40.22,40.22,0,0,1-9.37,7.08A22.58,22.58,0,0,1,572,111.76c-3.19-.08-5.63-1.09-7.3-3.05a11.25,11.25,0,0,1-2.62-7.78,21.2,21.2,0,0,1,2.84-9.57,47.55,47.55,0,0,1,7.2-10.26,42.22,42.22,0,0,1,10.26-8.35A23.25,23.25,0,0,1,594,69.29a9.66,9.66,0,0,1,7.3,2.72,10.65,10.65,0,0,1,2.73,7.46,7.84,7.84,0,0,0,2.52,5,8.05,8.05,0,0,0,6.08,2.37q7-.11,12.12-6.38Zm-57.51,22.74q0,6.52,4.59,6.63a14.08,14.08,0,0,0,9.17-3.81,37.66,37.66,0,0,0,8-8.83q7.82-11.49,8.05-21.18c0-3.77-1.64-5.74-4.92-5.89q-3.69,0-7.94,3.29a46.81,46.81,0,0,0-8,8.54,56.11,56.11,0,0,0-6.32,10.74A24.64,24.64,0,0,0,568.16,103.75Z"/><path d="M638.2,70.27,623.12,91.82l.22.23a141.42,141.42,0,0,1,12.6-14.35,37.39,37.39,0,0,1,7.64-6,14.54,14.54,0,0,1,7.63-2.36,6.49,6.49,0,0,1,7.2,7,15.69,15.69,0,0,1-2.63,7.09q-2.64,4.16-6.11,8.82-3.3,4.5-6,8.53c-1.9,2.69-2.86,4.81-2.86,6.34,0,2.23,1.07,3.34,3.19,3.34a14.74,14.74,0,0,0,7.77-2.71,52.16,52.16,0,0,0,9.83-8.43A144.83,144.83,0,0,0,677.49,79l.78.46a145.34,145.34,0,0,1-13.66,18.12,90.21,90.21,0,0,1-10.31,9.93q-5.35,4.1-10.37,4.21a7.84,7.84,0,0,1-5.47-2,6.42,6.42,0,0,1-2.17-5.08,14.55,14.55,0,0,1,2.85-8q2.75-4.11,6.05-8.37,3.46-4.27,6.1-8.14a13.63,13.63,0,0,0,2.63-6.75q-.1-2.84-3.3-2.83-4.36.12-9.84,4.61a76.6,76.6,0,0,0-11.28,11.2q-12.16,14.55-17,24.36h-7.32q14.18-22.31,25.59-40.23Z"/><path d="M673.66,71.65V70.27h8.82A226.8,226.8,0,0,1,701.59,42a47.31,47.31,0,0,1,10.78-9.68A20.75,20.75,0,0,1,724,28.72a10.42,10.42,0,0,1,5.86,1.5,5.59,5.59,0,0,1,2.27,5,6.62,6.62,0,0,1-1.6,4.61,6.25,6.25,0,0,1-4.41,2.13,23.77,23.77,0,0,0,1.07-6.62q.1-5.07-4.8-5.19-4.24.12-8.6,3.92a56.4,56.4,0,0,0-8.65,10Q696.47,57,689,70.27h25.85v1.38H688.37q-21.15,38.23-36.28,55.68t-33.82,17.21a20.82,20.82,0,0,1-12-3.67q-5.35-3.51-5.47-10.46a11.42,11.42,0,0,1,2.83-7.88q2.83-3.21,9.33-3.21h1v.91a8.54,8.54,0,0,0-5.81,2.6,10.29,10.29,0,0,0-2.4,7q.1,13,13,13.35a28.28,28.28,0,0,0,17.43-6.51,80.29,80.29,0,0,0,15.53-16.37q14.52-21.62,30.1-48.64Z"/><path d="M744.43,80.25q-5.37,9.81-17,20.2a60,60,0,0,1-11.66,8,27.34,27.34,0,0,1-12.09,3.29q-9.93-.12-10-9.8A23.4,23.4,0,0,1,696.69,91a46.93,46.93,0,0,1,7.73-10.61,48,48,0,0,1,10.41-8.07,23.41,23.41,0,0,1,10.47-3q6,.12,6.06,4.84c0,1.73-1,3.5-2.9,5.3a35.1,35.1,0,0,1-7.3,5,80.23,80.23,0,0,1-17.9,6.51,23.65,23.65,0,0,0-2.84,11.18,11.64,11.64,0,0,0,1.23,5.25,4.61,4.61,0,0,0,4.35,2.59,20.1,20.1,0,0,0,9-2.59,64.08,64.08,0,0,0,10.16-6.87,78.26,78.26,0,0,0,18.32-20.85ZM726,74c-.08-2.2-1.07-3.29-3-3.29a9.23,9.23,0,0,0-5,1.84,38.44,38.44,0,0,0-5.6,4.85,52,52,0,0,0-8.52,12.16q5.88-.93,13.67-5.3a23.44,23.44,0,0,0,6-4.73A8.44,8.44,0,0,0,726,74Z"/><path d="M764.74,56.55l-9.11,13.72h15.2l-.73,1.38H754.8q-9.16,15.1-14.09,22.88-5.15,7.84-5.14,11.82a3,3,0,0,0,1.51,2.94,5.5,5.5,0,0,0,3.41,1.09q4.25,0,9.27-3.34a69.27,69.27,0,0,0,9.83-8,166,166,0,0,0,16.82-19.49l.67.52a186.12,186.12,0,0,1-17.89,20.87,61.11,61.11,0,0,1-9.82,7.66,19,19,0,0,1-9.59,3.17,8.54,8.54,0,0,1-6.07-2.36,7.52,7.52,0,0,1-2.62-6.11,14.28,14.28,0,0,1,1.61-6.17,47.88,47.88,0,0,1,3.73-7.32q5-7.77,11.64-18.15H742l.66-1.38H749l8.85-13.72Z"/><path d="M797.53,56.55l-9.12,13.72h15.2l-.72,1.38h-15.3q-9.17,15.1-14.09,22.88-5.14,7.84-5.14,11.82a3,3,0,0,0,1.51,2.94,5.47,5.47,0,0,0,3.4,1.09q4.25,0,9.28-3.34a69.27,69.27,0,0,0,9.83-8A166,166,0,0,0,809.2,79.54l.67.52A186.23,186.23,0,0,1,792,100.93a60.63,60.63,0,0,1-9.81,7.66,19,19,0,0,1-9.59,3.17,8.58,8.58,0,0,1-6.08-2.36,7.55,7.55,0,0,1-2.62-6.11,14.3,14.3,0,0,1,1.62-6.17,47.88,47.88,0,0,1,3.73-7.32q5-7.77,11.64-18.15h-6.13l.67-1.38h6.41l8.85-13.72Z"/><path d="M823.08,70.27Q810.66,88.42,805.5,96.44q-5.38,8-5.27,10.89c-.08,2,.72,3,2.4,3q3.52,0,8.44-3.68a73.38,73.38,0,0,0,9.85-8.59Q831.6,87,835.57,79.66l.95.63q-4.69,8.13-15.34,19.2a77.86,77.86,0,0,1-10,8.64q-5.13,3.51-9.37,3.63a5.89,5.89,0,0,1-4.46-1.73,5.56,5.56,0,0,1-1.57-3.92q0-4.73,4.69-12.16t15.29-23.68Zm6.63-22a3.47,3.47,0,0,1,2.6,1,4.28,4.28,0,0,1,1,2.8q-.1,3.78-3.59,3.89-3.54-.11-3.66-3.89a3.9,3.9,0,0,1,1.17-2.8A3.13,3.13,0,0,1,829.71,48.31Z"/></g></g></svg>