<svg xmlns="http://www.w3.org/2000/svg" viewBox="0 0 124.41 128.12"><defs><style>.cls-1{fill:#6495ed;}.cls-2{fill:#ff1493;}.cls-2,.cls-3{stroke:#fff;stroke-miterlimit:10;}.cls-3{fill:#fff;}.cls-4{fill:#4b70b2;}</style></defs><title>RevampedConfetti-Logo-Mark-v3.0Asset 2</title><g id="Layer_2" data-name="Layer 2"><g id="Logo-Mark"><path id="Main" class="cls-1" d="M40.12,40.11l3.11,21.55c0,.8-3.34,5.67-3.78,6.33L5.84,113.71,1,119.08c-3.88,4.33,4.71,12.11,8.59,7.77l4.85-5.36L54.47,81.6c.65-.56,5.07-4.38,5.93-4.4l22.34,1.65c3.4,0,5-4.24,11.41-12.3l-13-11.82L63.05,42.66l-16.68-5.5A3.74,3.74,0,0,0,40.12,40.11Z"/><g id="A-Phi-Flower"><path id="Flower-Outer" class="cls-2" d="M64.45,22.72s7.47-12-1.77-17.83-16,3.48-16.71,6.2a11.15,11.15,0,0,0-12.43-3c-.31.12-.68.25-1.28.54s-1.33.73-1.53.85c-1.41.93-4.22,3.83-1.29,11.36,0,0-8.81,3.12-6.53,12.86s15.45,4.61,15.45,4.61,2.4,12.41,8.7,13c0,0,10.81,1.26,13-7.81a11.8,11.8,0,0,0,7.3-1.8,19.63,19.63,0,0,0,3-2.58c1.34-1.65,2.59-5.09-1.2-11.29-3.1-2.8-3-2.22-4.65-3.36A1.35,1.35,0,0,1,64.45,22.72Z"/><circle id="Center" class="cls-3" cx="48.55" cy="27.09" r="6.26"/></g><g id="Phi-Flower"><path id="Flower-Outer-2" data-name="Flower-Outer" class="cls-2" d="M93.15,20.2s7.47-12-1.77-17.82S75.43,5.85,74.67,8.58a11.15,11.15,0,0,0-12.43-3c-.31.12-.68.26-1.28.54s-1.33.73-1.53.86c-1.41.92-4.22,3.82-1.3,11.35,0,0-8.8,3.12-6.52,12.86s15.45,4.61,15.45,4.61,2.4,12.42,8.7,13c0,0,10.81,1.26,13-7.81a11.8,11.8,0,0,0,7.3-1.8,19.54,19.54,0,0,0,3-2.58c1.34-1.65,2.59-5.08-1.21-11.29-3.09-2.8-3-2.22-4.64-3.35A1.37,1.37,0,0,1,93.15,20.2Z"/><circle id="Center-2" data-name="Center" class="cls-3" cx="77.25" cy="24.57" r="6.26"/></g><g id="Big-Flower"><path id="Flower-Outer-3" data-name="Flower-Outer" class="cls-2" d="M114.55,64.82s7.47-12-1.77-17.83-16,3.48-16.71,6.2a11.15,11.15,0,0,0-12.43-3,13.06,13.06,0,0,0-1.28.54c-.55.26-1.33.73-1.53.85-1.41.93-4.23,3.83-1.3,11.35,0,0-8.8,3.13-6.53,12.87s15.46,4.61,15.46,4.61,2.4,12.41,8.7,13c0,0,10.81,1.26,13-7.81a11.74,11.74,0,0,0,7.29-1.81,19,19,0,0,0,3-2.57c1.34-1.65,2.59-5.09-1.21-11.29-3.09-2.8-3-2.22-4.64-3.36A1.35,1.35,0,0,1,114.55,64.82Z"/><circle id="Center-3" data-name="Center" class="cls-3" cx="98.65" cy="69.18" r="6.26"/></g><g id="Small-Flower"><path id="Flower-Outer-4" data-name="Flower-Outer" class="cls-2" d="M116.65,32.82s7.46-12-1.78-17.82-16,3.48-16.71,6.2a11.14,11.14,0,0,0-12.43-3c-.31.12-.68.25-1.28.54a17.19,17.19,0,0,0-1.52.85c-1.41.92-4.23,3.82-1.3,11.35,0,0-8.8,3.12-6.53,12.86s15.45,4.61,15.45,4.61,2.41,12.42,8.7,13c0,0,10.81,1.25,13-7.81a11.84,11.84,0,0,0,7.3-1.81,18.51,18.51,0,0,0,3-2.57c1.35-1.65,2.59-5.09-1.2-11.3-3.09-2.8-3-2.21-4.64-3.35A1.36,1.36,0,0,1,116.65,32.82Z"/><circle id="Center-4" data-name="Center" class="cls-3" cx="100.74" cy="37.19" r="6.26"/></g><polygon class="cls-4" points="41.28 65.25 54.91 81.19 34.36 74.78 41.28 65.25"/><polygon class="cls-4" points="44.29 91.75 34.36 74.78 54.91 81.19 44.29 91.75"/><polygon class="cls-4" points="34.36 74.78 44.29 91.75 24.88 87.75 34.36 74.78"/><polygon class="cls-4" points="24.88 87.75 32.45 103.48 44.29 91.75 24.88 87.75"/><polygon class="cls-4" points="24.88 87.75 32.45 103.48 13.51 103.27 24.88 87.75"/><polygon class="cls-4" points="13.51 103.27 21.67 114.26 32.45 103.48 13.51 103.27"/><polygon class="cls-4" points="21.67 114.26 11 106.7 13.51 103.27 21.67 114.26"/><g id="Small-Flower-2" data-name="Small-Flower"><path id="Flower-Outer-5" data-name="Flower-Outer" class="cls-2" d="M85.75,43.05S93.22,31,84,25.22s-16,3.48-16.71,6.2a11.14,11.14,0,0,0-12.43-3c-.31.12-.68.25-1.28.54s-1.33.72-1.53.85c-1.41.92-4.22,3.83-1.29,11.35,0,0-8.81,3.12-6.53,12.86s15.45,4.61,15.45,4.61,2.4,12.42,8.7,13c0,0,10.81,1.25,13-7.81a11.85,11.85,0,0,0,7.3-1.81,19.41,19.41,0,0,0,3-2.57c1.34-1.65,2.59-5.09-1.2-11.3-3.1-2.8-3-2.21-4.65-3.35A1.36,1.36,0,0,1,85.75,43.05Z"/><circle id="Center-5" data-name="Center" class="cls-3" cx="69.85" cy="47.41" r="6.26"/></g></g></g></svg>